<svg width="377" height="377" viewBox="0 0 377 377" fill="none" xmlns="http://www.w3.org/2000/svg">
<g clip-path="url(#clip0_6_102)">
<path d="M188.5 21.2354C192.608 21.2354 197.043 22.2533 203.803 25.3154C210.833 28.5001 219.322 33.3832 231.75 40.5586L294.996 77.0742C307.424 84.2495 315.898 89.1593 322.171 93.6553C328.202 97.978 331.302 101.31 333.355 104.867C335.409 108.425 336.746 112.775 337.474 120.16C338.231 127.841 338.246 137.634 338.246 151.985V225.015C338.246 239.366 338.231 249.159 337.474 256.84C336.746 264.225 335.409 268.575 333.355 272.133C331.302 275.69 328.202 279.022 322.171 283.345C315.898 287.841 307.424 292.75 294.996 299.926L231.75 336.441C219.322 343.617 210.833 348.5 203.803 351.685C197.043 354.747 192.608 355.765 188.5 355.765C184.392 355.765 179.957 354.747 173.197 351.685C166.167 348.5 157.678 343.617 145.25 336.441L82.0039 299.926C69.5759 292.75 61.1022 287.841 54.8291 283.345C48.7978 279.022 45.6985 275.69 43.6445 272.133C41.5906 268.575 40.2544 264.225 39.5264 256.84C38.7692 249.159 38.7539 239.366 38.7539 225.015V151.985C38.7539 137.634 38.7692 127.841 39.5264 120.16C40.2544 112.775 41.5906 108.425 43.6445 104.867C45.6985 101.31 48.7978 97.978 54.8291 93.6553C61.1022 89.1593 69.5759 84.2495 82.0039 77.0742L145.25 40.5586C157.678 33.3832 166.167 28.5001 173.197 25.3154C179.957 22.2533 184.392 21.2354 188.5 21.2354Z" stroke="white" stroke-width="27"/>
<path d="M117.306 141.585C122.682 140.106 127.489 139.936 131.726 141.074C136.126 142.052 138.738 144.04 139.562 147.038L138.504 236.755C139.255 238.736 140.576 240.158 142.465 241.02C144.384 241.99 146.392 242.531 148.488 242.646C150.585 242.76 152.69 242.527 154.802 241.946C156.914 241.365 158.842 240.49 160.585 239.319C162.329 238.149 163.778 236.657 164.931 234.843C166.114 233.135 166.522 231.238 166.154 229.151L167.301 139.756C166.476 136.758 167.705 133.714 170.986 130.624C174.045 127.48 178.263 125.168 183.64 123.69C189.016 122.211 193.808 121.988 198.016 123.019C202.445 124.104 205.072 126.145 205.896 129.143L204.484 217.575C204.514 217.682 204.543 217.789 204.573 217.896C205.324 219.877 206.548 221.326 208.246 222.241C210.165 223.21 212.172 223.752 214.269 223.866C216.366 223.981 218.471 223.748 220.583 223.167C222.503 222.639 224.335 221.79 226.078 220.619C227.822 219.449 229.174 217.983 230.136 216.222C231.318 214.515 231.726 212.617 231.359 210.53L232.505 121.135C231.681 118.137 232.91 115.093 236.19 112.003C239.058 108.911 243.18 106.626 248.556 105.148C253.741 103.722 258.437 103.525 262.645 104.556C266.882 105.694 269.412 107.762 270.237 110.759L268.825 199.192C270.694 206.739 269.41 213.713 264.975 220.115C260.76 226.57 255.189 231.845 248.259 235.938C241.359 240.139 234.165 243.269 226.677 245.328C219.188 247.387 211.501 248.349 203.616 248.215C199.894 248.201 196.388 247.842 193.095 247.135C190.139 249.905 186.903 252.407 183.387 254.641C176.265 258.787 168.768 261.942 160.896 264.107C153.407 266.166 145.528 267.182 137.259 267.152C129.181 267.07 121.504 265.439 114.227 262.258C107.142 259.025 102.377 253.713 99.9318 246.325L99.6668 245.361C99.2982 244.772 99.0255 244.156 98.8489 243.514L100.967 157.651C100.143 154.653 101.26 151.582 104.32 148.438C107.601 145.348 111.929 143.063 117.306 141.585Z" fill="white"/>
</g>
<defs>
<clipPath id="clip0_6_102">
<rect width="377" height="377" fill="white"/>
</clipPath>
</defs>
</svg>
