<svg width="512" height="512" viewBox="0 0 512 512" fill="none" xmlns="http://www.w3.org/2000/svg">
<path d="M256.5 89.2354C260.608 89.2354 265.043 90.2533 271.803 93.3154C278.833 96.5001 287.322 101.383 299.75 108.559L362.996 145.074C375.424 152.25 383.898 157.159 390.171 161.655C396.202 165.978 399.302 169.31 401.355 172.867C403.409 176.425 404.746 180.775 405.474 188.16C406.231 195.841 406.246 205.634 406.246 219.985V293.015C406.246 307.366 406.231 317.159 405.474 324.84C404.746 332.225 403.409 336.575 401.355 340.133C399.302 343.69 396.202 347.022 390.171 351.345C383.898 355.841 375.424 360.75 362.996 367.926L299.75 404.441C287.322 411.617 278.833 416.5 271.803 419.685C265.043 422.747 260.608 423.765 256.5 423.765C252.392 423.765 247.957 422.747 241.197 419.685C234.167 416.5 225.678 411.617 213.25 404.441L150.004 367.926C137.576 360.75 129.102 355.841 122.829 351.345C116.798 347.022 113.698 343.69 111.645 340.133C109.591 336.575 108.254 332.225 107.526 324.84C106.769 317.159 106.754 307.366 106.754 293.015V219.985C106.754 205.634 106.769 195.841 107.526 188.16C108.254 180.775 109.591 176.425 111.645 172.867C113.698 169.31 116.798 165.978 122.829 161.655C129.102 157.159 137.576 152.25 150.004 145.074L213.25 108.559C225.678 101.383 234.167 96.5001 241.197 93.3154C247.957 90.2533 252.392 89.2354 256.5 89.2354Z" stroke="#9E41E0" stroke-width="27"/>
<path d="M185.306 209.585C190.682 208.106 195.489 207.936 199.726 209.074C204.126 210.052 206.738 212.04 207.562 215.038L206.504 304.755C207.255 306.736 208.576 308.158 210.465 309.02C212.384 309.99 214.392 310.531 216.488 310.646C218.585 310.76 220.69 310.527 222.802 309.946C224.914 309.365 226.842 308.49 228.585 307.319C230.329 306.149 231.778 304.657 232.931 302.843C234.114 301.135 234.522 299.238 234.154 297.151L235.301 207.756C234.476 204.758 235.705 201.714 238.986 198.624C242.045 195.48 246.263 193.168 251.64 191.69C257.016 190.211 261.808 189.988 266.016 191.019C270.445 192.104 273.072 194.145 273.896 197.143L272.484 285.575C272.514 285.682 272.543 285.789 272.573 285.896C273.324 287.877 274.548 289.326 276.246 290.241C278.165 291.21 280.172 291.752 282.269 291.866C284.366 291.981 286.471 291.748 288.583 291.167C290.503 290.639 292.335 289.79 294.078 288.619C295.822 287.449 297.174 285.983 298.136 284.222C299.318 282.515 299.726 280.617 299.359 278.53L300.505 189.135C299.681 186.137 300.91 183.093 304.19 180.003C307.058 176.911 311.18 174.626 316.556 173.148C321.741 171.722 326.437 171.525 330.645 172.556C334.882 173.694 337.412 175.762 338.237 178.759L336.825 267.192C338.694 274.739 337.41 281.713 332.975 288.115C328.76 294.57 323.189 299.845 316.259 303.938C309.359 308.139 302.165 311.269 294.677 313.328C287.188 315.387 279.501 316.349 271.616 316.215C267.894 316.201 264.388 315.842 261.095 315.135C258.139 317.905 254.903 320.407 251.387 322.641C244.265 326.787 236.768 329.942 228.896 332.107C221.407 334.166 213.528 335.182 205.259 335.152C197.181 335.07 189.504 333.439 182.227 330.258C175.142 327.025 170.377 321.713 167.932 314.325L167.667 313.361C167.298 312.772 167.026 312.156 166.849 311.514L168.967 225.651C168.143 222.653 169.26 219.582 172.32 216.438C175.601 213.348 179.929 211.063 185.306 209.585Z" fill="#9E41E0"/>
</svg>
